<?xml version="1.0" encoding="UTF-8" standalone="no"?>
<!DOCTYPE svg PUBLIC "-//W3C//DTD SVG 1.1//EN" "http://www.w3.org/Graphics/SVG/1.1/DTD/svg11.dtd">
<svg height="100%" stroke-miterlimit="10" style="fill-rule:nonzero;clip-rule:evenodd;stroke-linecap:round;stroke-linejoin:round;" version="1.1" viewBox="0 0 250 200" width="100%" xml:space="preserve" xmlns="http://www.w3.org/2000/svg" xmlns:xlink="http://www.w3.org/1999/xlink">
<defs>
<linearGradient gradientTransform="matrix(1 0 0 1 0 0)" gradientUnits="userSpaceOnUse" id="LinearGradient" x1="122.675" x2="96.9078" y1="31.2944" y2="56.0722">
<stop offset="0" stop-color="#a0def5"/>
<stop offset="1" stop-color="#6dc0de"/>
</linearGradient>
<linearGradient gradientTransform="matrix(1 0 0 1 0 0)" gradientUnits="userSpaceOnUse" id="LinearGradient_2" x1="93.0431" x2="102.238" y1="61.0046" y2="56.6171">
<stop offset="0" stop-color="#a0def5"/>
<stop offset="1" stop-color="#6dc0de"/>
</linearGradient>
<linearGradient gradientTransform="matrix(1.78146 0 0 1 -14.9983 0)" gradientUnits="userSpaceOnUse" id="LinearGradient_3" x1="101.918" x2="95.3019" y1="44.9549" y2="73.6485">
<stop offset="0" stop-color="#43e4eb"/>
<stop offset="1" stop-color="#3fa8e9"/>
</linearGradient>
<linearGradient gradientTransform="matrix(1.78146 0 0 1 -14.9983 0)" gradientUnits="userSpaceOnUse" id="LinearGradient_4" x1="95.2616" x2="82.4298" y1="50.5553" y2="73.0875">
<stop offset="0" stop-color="#43e4eb"/>
<stop offset="1" stop-color="#3fa8e9"/>
</linearGradient>
<linearGradient gradientTransform="matrix(1.78146 0 0 1 -14.9983 0)" gradientUnits="userSpaceOnUse" id="LinearGradient_5" x1="52.8366" x2="57.0371" y1="55.6655" y2="81.2534">
<stop offset="0" stop-color="#43e4eb"/>
<stop offset="1" stop-color="#3fa8e9"/>
</linearGradient>
<linearGradient gradientTransform="matrix(1.78146 0 0 1 -14.9983 0)" gradientUnits="userSpaceOnUse" id="LinearGradient_6" x1="40.2295" x2="46.011" y1="51.2194" y2="76.652">
<stop offset="0" stop-color="#43e4eb"/>
<stop offset="1" stop-color="#3fa8e9"/>
</linearGradient>
<linearGradient gradientTransform="matrix(1.78146 0 0 1 -14.9983 0)" gradientUnits="userSpaceOnUse" id="LinearGradient_7" x1="92.1636" x2="87.4777" y1="27.8844" y2="63.6703">
<stop offset="0" stop-color="#43e4eb"/>
<stop offset="1" stop-color="#3fa8e9"/>
</linearGradient>
<linearGradient gradientTransform="matrix(1.78146 0 0 1 -14.9983 0)" gradientUnits="userSpaceOnUse" id="LinearGradient_8" x1="48.2297" x2="59.8921" y1="42.3256" y2="61.5322">
<stop offset="0" stop-color="#43e4eb"/>
<stop offset="1" stop-color="#3fa8e9"/>
</linearGradient>
<linearGradient gradientTransform="matrix(1 0 0 1 0 0)" gradientUnits="userSpaceOnUse" id="LinearGradient_9" x1="177.736" x2="177.081" y1="30.8089" y2="83.5656">
<stop offset="0" stop-color="#a0def5"/>
<stop offset="1" stop-color="#6dc0de"/>
</linearGradient>
<linearGradient gradientTransform="matrix(1 0 0 1 0 0)" gradientUnits="userSpaceOnUse" id="LinearGradient_10" x1="149.392" x2="168.07" y1="87.9074" y2="79.7973">
<stop offset="0" stop-color="#a0def5"/>
<stop offset="1" stop-color="#6dc0de"/>
</linearGradient>
<linearGradient gradientTransform="matrix(1 0 0 1 0 0)" gradientUnits="userSpaceOnUse" id="LinearGradient_11" x1="103.909" x2="108.707" y1="45.8993" y2="80.7599">
<stop offset="0" stop-color="#a0def5"/>
<stop offset="1" stop-color="#6dc0de"/>
</linearGradient>
<linearGradient gradientTransform="matrix(1 0 0 1 0 0)" gradientUnits="userSpaceOnUse" id="LinearGradient_12" x1="123.802" x2="98.6004" y1="55.4939" y2="97.1348">
<stop offset="0" stop-color="#a0def5"/>
<stop offset="1" stop-color="#6dc0de"/>
</linearGradient>
<linearGradient gradientTransform="matrix(1.78146 0 0 1 -14.9983 0)" gradientUnits="userSpaceOnUse" id="LinearGradient_13" x1="87.7667" x2="96.0846" y1="79.1702" y2="97.117">
<stop offset="0" stop-color="#43e4eb"/>
<stop offset="1" stop-color="#3fa8e9"/>
</linearGradient>
<linearGradient gradientTransform="matrix(1.78146 0 0 1 -14.9983 0)" gradientUnits="userSpaceOnUse" id="LinearGradient_14" x1="76.6923" x2="80.0729" y1="88.7237" y2="111.512">
<stop offset="0" stop-color="#43e4eb"/>
<stop offset="1" stop-color="#3fa8e9"/>
</linearGradient>
<linearGradient gradientTransform="matrix(1.78146 0 0 1 -14.9983 0)" gradientUnits="userSpaceOnUse" id="LinearGradient_15" x1="81.4146" x2="87.6903" y1="70.5615" y2="98.8478">
<stop offset="0" stop-color="#43e4eb"/>
<stop offset="1" stop-color="#3fa8e9"/>
</linearGradient>
</defs>
<g id="box">
<path d="M32.0276 145.83L124.861 92.2291L217.704 145.83L124.861 199.432L32.0276 145.83Z" fill="#000000" fill-rule="nonzero" opacity="0.25" stroke="none"/>
<path d="M124.861 92.2291L124.861 0.568408L30.1395 55.2528L109.389 101.163L124.861 92.2291Z" fill="#65adc7" fill-rule="nonzero" opacity="1" stroke="none"/>
<path d="M124.861 0.568408L124.861 92.2291L140.343 101.163L219.592 55.2528L124.861 0.568408Z" fill="#4f95af" fill-rule="nonzero" opacity="1" stroke="none"/>
<path d="M100.704 99.8907C100.704 93.2336 106.1 87.8369 112.757 87.8369C119.415 87.8369 124.811 93.2336 124.811 99.8907C124.811 106.548 119.415 111.945 112.757 111.945C106.1 111.945 100.704 106.548 100.704 99.8907Z" fill="#40ace9" fill-rule="nonzero" opacity="1" stroke="none"/>
<path d="M76.8655 90.7984C72.3173 86.2502 72.3173 78.8761 76.8655 74.3279C81.4137 69.7797 88.7878 69.7797 93.336 74.3279C97.8842 78.8761 97.8842 86.2502 93.336 90.7984C88.7878 95.3466 81.4137 95.3466 76.8655 90.7984Z" fill="#41bcea" fill-rule="nonzero" opacity="1" stroke="none"/>
<path d="M92.4518 55.9055C88.9507 47.4531 92.9645 37.7629 101.417 34.2618C109.869 30.7608 119.559 34.7746 123.061 43.2269C126.562 51.6793 122.548 61.3695 114.095 64.8705C105.643 68.3716 95.9529 64.3578 92.4518 55.9055Z" fill="url(#LinearGradient)" fill-rule="nonzero" opacity="1" stroke="none"/>
<path d="M103.148 55.5211C95.258 49.8171 94.612 38.6279 100.783 34.5437L100.783 34.5437C93.323 38.0073 89.5341 46.42 91.8843 54.3019C94.2345 62.1839 102.012 67.1478 110.151 65.9603C118.289 64.7728 124.324 57.7936 124.324 49.5687C123.698 57.5483 111.028 61.235 103.148 55.5211Z" fill="url(#LinearGradient_2)" fill-rule="nonzero" opacity="1" stroke="none"/>
<path d="M126.6 39.4924L145.749 33.5301C147.589 33.0649 149.542 33.504 151.006 34.7126L165.236 46.7267C166.562 48.0879 167.16 49.9998 166.846 51.8742L162.463 71.4504C161.951 73.281 160.596 74.7575 158.816 75.4253L139.667 81.3876C137.827 81.8529 135.875 81.4137 134.411 80.2051L120.18 68.191C118.854 66.8299 118.256 64.9179 118.571 63.0436L122.953 43.4673C123.465 41.6367 124.82 40.1602 126.6 39.4924Z" fill="url(#LinearGradient_3)" fill-rule="nonzero" opacity="1" stroke="none"/>
<path d="M118.561 63.0336C118.246 64.908 118.844 66.8199 120.171 68.1811L134.401 80.1952C135.726 81.2926 137.462 81.7636 139.161 81.487C137.819 81.6858 137.034 80.7715 137.372 79.271L141.754 59.6947C141.99 58.7872 142.455 57.9557 143.106 57.28L124.294 41.0029C123.644 41.6785 123.179 42.5101 122.943 43.4176L118.561 63.0336Z" fill="url(#LinearGradient_4)" fill-rule="nonzero" opacity="1" stroke="none"/>
<path d="M64.9893 46.8062L81.5148 44.7094C83.0858 44.5997 84.6158 45.2412 85.6388 46.4385L95.5163 58.3631C96.3995 59.67 96.6097 61.3185 96.0828 62.8051L89.6335 78.168C88.9405 79.5839 87.6167 80.5869 86.0661 80.8709L69.5504 82.9776C67.9744 83.0881 66.4397 82.4425 65.4166 81.2386L55.5489 69.3139C54.6658 68.0071 54.4556 66.3586 54.9825 64.872L61.4218 49.5091C62.1149 48.0932 63.4387 47.0902 64.9893 46.8062Z" fill="url(#LinearGradient_5)" fill-rule="nonzero" opacity="1" stroke="none"/>
<path d="M54.9726 64.8521C54.4457 66.3388 54.6559 67.9873 55.539 69.2941L65.4066 81.2187C66.333 82.3078 67.6836 82.9451 69.1132 82.9676C67.9903 82.9676 67.4835 82.0733 67.9704 80.9007L74.4197 65.5378C74.7606 64.8271 75.2771 64.2149 75.9202 63.759L62.9223 47.7403C62.292 48.1992 61.7892 48.8115 61.4616 49.519L54.9726 64.8521Z" fill="url(#LinearGradient_6)" fill-rule="nonzero" opacity="1" stroke="none"/>
<path d="M148.531 33.4688C147.628 33.266 146.703 33.2657 145.781 33.5L126.625 39.4688C125.737 39.7803 124.936 40.3263 124.312 41.0312L143.125 57.25C142.961 57.426 142.828 57.6179 142.688 57.8125C143.367 56.8406 144.32 56.1172 145.438 55.7188L164.594 49.75C166.074 49.283 167.057 50.015 166.938 51.4062C167.095 49.6708 166.467 47.9663 165.25 46.7188L151.031 34.6875C150.298 34.0816 149.434 33.6715 148.531 33.4688Z" fill="url(#LinearGradient_7)" fill-rule="nonzero" opacity="1" stroke="none"/>
<path d="M81.5312 44.7188L65 46.8125C64.2298 46.9338 63.5171 47.2655 62.9062 47.75L75.9062 63.7812C75.7449 63.903 75.5805 64.0446 75.4375 64.1875C76.1356 63.4934 77.0297 63.041 78 62.875L94.5313 60.75C95.8131 60.5811 96.5169 61.3146 96.2188 62.4375C96.5893 61.0519 96.3311 59.5656 95.5313 58.375L85.6562 46.4688C84.6332 45.2648 83.1073 44.6082 81.5312 44.7188Z" fill="url(#LinearGradient_8)" fill-rule="nonzero" opacity="1" stroke="none"/>
<path d="M155.626 74.849C155.626 63.4994 164.827 54.2988 176.177 54.2988C187.526 54.2988 196.727 63.4994 196.727 74.849C196.727 86.1985 187.526 95.3991 176.177 95.3991C164.827 95.3991 155.626 86.1985 155.626 74.849Z" fill="url(#LinearGradient_9)" fill-rule="nonzero" opacity="1" stroke="none"/>
<path d="M170.443 82.2422C160.655 75.157 159.85 61.2151 167.462 56.2068L167.462 56.2068C158.205 60.5089 153.506 70.9511 156.426 80.7324C159.345 90.5136 168.999 96.6716 179.1 95.1956C189.2 93.7196 196.688 85.0567 196.687 74.849C195.952 84.7265 180.261 89.3374 170.443 82.2422Z" fill="url(#LinearGradient_10)" fill-rule="nonzero" opacity="1" stroke="none"/>
<path d="M109.041 52.9275C121.444 54.321 130.366 65.5099 128.963 77.912C127.56 90.314 116.365 99.2276 103.964 97.8158C91.563 96.404 82.6576 85.2019 84.0786 72.8019C85.4967 60.4278 96.6637 51.5369 109.041 52.9275Z" fill="url(#LinearGradient_11)" fill-rule="nonzero" opacity="1" stroke="none"/>
<path d="M113.88 82.5701C104.937 92.3881 89.6335 91.5136 85.0624 82.5701L85.0624 82.5701C88.6393 93.1782 99.4496 99.5631 110.466 97.5747C121.483 95.5863 129.379 85.825 129.022 74.6359C128.665 63.4467 120.162 54.2091 109.041 52.9275C119.763 55.0342 122.824 72.8019 113.88 82.5701Z" fill="url(#LinearGradient_12)" fill-rule="nonzero" opacity="1" stroke="none"/>
<path d="M115.669 89.7846L127.892 73.4975C129.122 72.0105 130.995 71.2107 132.92 71.3511L151.801 72.8118C153.699 73.1472 155.326 74.3642 156.183 76.0911L164.133 94.8128C164.796 96.6252 164.553 98.6458 163.477 100.248L151.304 116.526C150.064 118.006 148.193 118.807 146.266 118.682L127.385 117.211C125.489 116.876 123.865 115.658 123.013 113.932L115.063 95.2103C114.393 93.4079 114.618 91.3946 115.669 89.7846Z" fill="url(#LinearGradient_13)" fill-rule="nonzero" opacity="1" stroke="none"/>
<path d="M123.042 113.942C123.895 115.668 125.519 116.886 127.415 117.221L146.295 118.692C148.039 118.796 149.745 118.153 150.986 116.923C149.992 117.917 148.81 117.599 148.193 116.158L140.244 97.4362C139.904 96.5472 139.794 95.5866 139.926 94.6438L114.804 92.4179C114.673 93.3639 114.782 94.3278 115.122 95.2202L123.042 113.942Z" fill="url(#LinearGradient_14)" fill-rule="nonzero" opacity="1" stroke="none"/>
<path d="M155.994 75.6638C155.269 74.4515 154.007 74.4316 153.083 75.6638L140.86 91.9509C140.191 92.9492 139.845 94.1283 139.866 95.3295C139.851 95.0846 139.851 94.8391 139.866 94.5942L114.745 92.3682C114.846 91.417 115.188 90.5072 115.739 89.7249L127.951 73.4478C129.19 71.9663 131.062 71.1651 132.99 71.2914L151.87 72.7522C153.602 73.0782 155.107 74.1407 155.994 75.6638Z" fill="url(#LinearGradient_15)" fill-rule="nonzero" opacity="1" stroke="none"/>
<path d="M30.1395 55.2528L30.1395 144.747L124.861 199.432L124.861 110.096L30.1395 55.2528Z" fill="#4f95af" fill-rule="nonzero" opacity="1" stroke="none"/>
<path d="M219.592 55.2528L219.582 144.747L124.861 199.432L124.861 110.096" fill="#65adc7" fill-rule="nonzero" opacity="1" stroke="none"/>
<path d="M124.875 0.5625L219.594 55.25L250 68.1562L155.281 13.4688L124.875 0.5625ZM124.875 0.5625L98.5 11.125L3.78125 65.8125L30.125 55.25L124.875 0.5625ZM30.125 55.25L0 97.3438L94.7188 152.188L124.875 110.094L30.125 55.25ZM124.875 110.094L155 152.188L249.719 97.3438L219.594 55.25L124.875 110.094Z" fill="#75c9e7" fill-rule="nonzero" opacity="1" stroke="none"/>
</g>
</svg>
